<mxfile host="app.diagrams.net" modified="2022-09-02T09:36:01.133Z" agent="5.0 (Windows NT 10.0; Win64; x64) AppleWebKit/537.36 (KHTML, like Gecko) Chrome/104.0.0.0 Safari/537.36" etag="74y4MXNCsepCLx4n17CD" version="20.2.7" type="github">
  <diagram id="XbLCqSY-dmlzXCKU_f4e" name="第 1 页">
    <mxGraphModel dx="1488" dy="907" grid="1" gridSize="10" guides="1" tooltips="1" connect="1" arrows="1" fold="1" page="1" pageScale="1" pageWidth="827" pageHeight="1169" math="0" shadow="0">
      <root>
        <mxCell id="0" />
        <mxCell id="1" parent="0" />
        <mxCell id="GdallPRJVWENSj5D0rk3-1" value="" style="rounded=0;whiteSpace=wrap;html=1;" vertex="1" parent="1">
          <mxGeometry x="130" y="200" width="120" height="40" as="geometry" />
        </mxCell>
        <mxCell id="GdallPRJVWENSj5D0rk3-2" value="" style="rounded=0;whiteSpace=wrap;html=1;" vertex="1" parent="1">
          <mxGeometry x="40" y="360" width="330" height="40" as="geometry" />
        </mxCell>
        <mxCell id="GdallPRJVWENSj5D0rk3-4" value="ID" style="text;html=1;resizable=0;autosize=1;align=center;verticalAlign=middle;points=[];fillColor=none;strokeColor=none;rounded=0;" vertex="1" parent="1">
          <mxGeometry x="170" y="170" width="40" height="30" as="geometry" />
        </mxCell>
        <mxCell id="GdallPRJVWENSj5D0rk3-5" value="" style="rounded=0;whiteSpace=wrap;html=1;" vertex="1" parent="1">
          <mxGeometry x="40" y="320" width="330" height="40" as="geometry" />
        </mxCell>
        <mxCell id="GdallPRJVWENSj5D0rk3-6" value="" style="endArrow=none;html=1;rounded=0;entryX=0.119;entryY=-0.005;entryDx=0;entryDy=0;entryPerimeter=0;" edge="1" parent="1" target="GdallPRJVWENSj5D0rk3-5">
          <mxGeometry width="50" height="50" relative="1" as="geometry">
            <mxPoint x="79" y="400" as="sourcePoint" />
            <mxPoint x="130" y="340" as="targetPoint" />
          </mxGeometry>
        </mxCell>
        <mxCell id="GdallPRJVWENSj5D0rk3-7" value="" style="endArrow=none;html=1;rounded=0;entryX=0.119;entryY=-0.005;entryDx=0;entryDy=0;entryPerimeter=0;" edge="1" parent="1">
          <mxGeometry width="50" height="50" relative="1" as="geometry">
            <mxPoint x="119" y="400" as="sourcePoint" />
            <mxPoint x="119.26999999999998" y="319.79999999999995" as="targetPoint" />
          </mxGeometry>
        </mxCell>
        <mxCell id="GdallPRJVWENSj5D0rk3-8" value="" style="endArrow=none;html=1;rounded=0;entryX=0.119;entryY=-0.005;entryDx=0;entryDy=0;entryPerimeter=0;" edge="1" parent="1">
          <mxGeometry width="50" height="50" relative="1" as="geometry">
            <mxPoint x="159" y="400" as="sourcePoint" />
            <mxPoint x="159.26999999999998" y="319.79999999999995" as="targetPoint" />
          </mxGeometry>
        </mxCell>
        <mxCell id="GdallPRJVWENSj5D0rk3-9" value="" style="endArrow=none;html=1;rounded=0;entryX=0.119;entryY=-0.005;entryDx=0;entryDy=0;entryPerimeter=0;" edge="1" parent="1">
          <mxGeometry width="50" height="50" relative="1" as="geometry">
            <mxPoint x="199" y="400" as="sourcePoint" />
            <mxPoint x="199.26999999999998" y="319.79999999999995" as="targetPoint" />
          </mxGeometry>
        </mxCell>
        <mxCell id="GdallPRJVWENSj5D0rk3-10" value="" style="endArrow=none;html=1;rounded=0;entryX=0.119;entryY=-0.005;entryDx=0;entryDy=0;entryPerimeter=0;" edge="1" parent="1">
          <mxGeometry width="50" height="50" relative="1" as="geometry">
            <mxPoint x="239" y="400" as="sourcePoint" />
            <mxPoint x="239.26999999999998" y="319.79999999999995" as="targetPoint" />
          </mxGeometry>
        </mxCell>
        <mxCell id="GdallPRJVWENSj5D0rk3-11" value="" style="endArrow=none;html=1;rounded=0;entryX=0.119;entryY=-0.005;entryDx=0;entryDy=0;entryPerimeter=0;" edge="1" parent="1">
          <mxGeometry width="50" height="50" relative="1" as="geometry">
            <mxPoint x="279" y="400" as="sourcePoint" />
            <mxPoint x="279.27" y="319.79999999999995" as="targetPoint" />
          </mxGeometry>
        </mxCell>
        <mxCell id="GdallPRJVWENSj5D0rk3-12" value="" style="endArrow=none;html=1;rounded=0;entryX=0.119;entryY=-0.005;entryDx=0;entryDy=0;entryPerimeter=0;" edge="1" parent="1">
          <mxGeometry width="50" height="50" relative="1" as="geometry">
            <mxPoint x="319" y="400" as="sourcePoint" />
            <mxPoint x="319.27" y="319.79999999999995" as="targetPoint" />
          </mxGeometry>
        </mxCell>
        <mxCell id="GdallPRJVWENSj5D0rk3-13" value="" style="endArrow=none;html=1;rounded=0;entryX=0.119;entryY=-0.005;entryDx=0;entryDy=0;entryPerimeter=0;" edge="1" parent="1">
          <mxGeometry width="50" height="50" relative="1" as="geometry">
            <mxPoint x="140" y="240.2" as="sourcePoint" />
            <mxPoint x="140.26999999999998" y="199.99999999999994" as="targetPoint" />
          </mxGeometry>
        </mxCell>
        <mxCell id="GdallPRJVWENSj5D0rk3-14" value="" style="endArrow=none;html=1;rounded=0;entryX=0.119;entryY=-0.005;entryDx=0;entryDy=0;entryPerimeter=0;" edge="1" parent="1">
          <mxGeometry width="50" height="50" relative="1" as="geometry">
            <mxPoint x="209" y="240" as="sourcePoint" />
            <mxPoint x="209.26999999999998" y="199.79999999999995" as="targetPoint" />
          </mxGeometry>
        </mxCell>
        <mxCell id="GdallPRJVWENSj5D0rk3-16" value="9" style="text;html=1;resizable=0;autosize=1;align=center;verticalAlign=middle;points=[];fillColor=none;strokeColor=none;rounded=0;" vertex="1" parent="1">
          <mxGeometry x="140" y="210" width="30" height="30" as="geometry" />
        </mxCell>
        <mxCell id="GdallPRJVWENSj5D0rk3-17" value="" style="endArrow=none;html=1;rounded=0;entryX=0.119;entryY=-0.005;entryDx=0;entryDy=0;entryPerimeter=0;" edge="1" parent="1">
          <mxGeometry width="50" height="50" relative="1" as="geometry">
            <mxPoint x="169" y="240" as="sourcePoint" />
            <mxPoint x="169.26999999999998" y="199.79999999999995" as="targetPoint" />
          </mxGeometry>
        </mxCell>
        <mxCell id="GdallPRJVWENSj5D0rk3-18" value="" style="endArrow=none;html=1;rounded=0;entryX=0.119;entryY=-0.005;entryDx=0;entryDy=0;entryPerimeter=0;" edge="1" parent="1">
          <mxGeometry width="50" height="50" relative="1" as="geometry">
            <mxPoint x="179" y="240" as="sourcePoint" />
            <mxPoint x="179.26999999999998" y="199.79999999999995" as="targetPoint" />
          </mxGeometry>
        </mxCell>
        <mxCell id="GdallPRJVWENSj5D0rk3-19" value="" style="endArrow=none;html=1;rounded=0;entryX=0.119;entryY=-0.005;entryDx=0;entryDy=0;entryPerimeter=0;" edge="1" parent="1">
          <mxGeometry width="50" height="50" relative="1" as="geometry">
            <mxPoint x="219" y="240" as="sourcePoint" />
            <mxPoint x="219.26999999999998" y="199.79999999999995" as="targetPoint" />
          </mxGeometry>
        </mxCell>
        <mxCell id="GdallPRJVWENSj5D0rk3-21" value="20" style="text;html=1;resizable=0;autosize=1;align=center;verticalAlign=middle;points=[];fillColor=none;strokeColor=none;rounded=0;" vertex="1" parent="1">
          <mxGeometry x="175" y="210" width="40" height="30" as="geometry" />
        </mxCell>
        <mxCell id="GdallPRJVWENSj5D0rk3-22" value="" style="endArrow=classic;html=1;rounded=0;exitX=0;exitY=1;exitDx=0;exitDy=0;" edge="1" parent="1" source="GdallPRJVWENSj5D0rk3-1">
          <mxGeometry width="50" height="50" relative="1" as="geometry">
            <mxPoint x="50" y="280" as="sourcePoint" />
            <mxPoint x="70" y="310" as="targetPoint" />
          </mxGeometry>
        </mxCell>
        <mxCell id="GdallPRJVWENSj5D0rk3-23" value="1" style="text;html=1;resizable=0;autosize=1;align=center;verticalAlign=middle;points=[];fillColor=none;strokeColor=none;rounded=0;" vertex="1" parent="1">
          <mxGeometry x="40" y="330" width="30" height="30" as="geometry" />
        </mxCell>
        <mxCell id="GdallPRJVWENSj5D0rk3-24" value="" style="endArrow=classic;html=1;rounded=0;exitX=0.061;exitY=0.5;exitDx=0;exitDy=0;exitPerimeter=0;" edge="1" parent="1" source="GdallPRJVWENSj5D0rk3-2">
          <mxGeometry width="50" height="50" relative="1" as="geometry">
            <mxPoint x="70" y="510" as="sourcePoint" />
            <mxPoint x="60" y="630" as="targetPoint" />
          </mxGeometry>
        </mxCell>
        <mxCell id="GdallPRJVWENSj5D0rk3-25" value="" style="shape=table;html=1;whiteSpace=wrap;startSize=0;container=1;collapsible=0;childLayout=tableLayout;" vertex="1" parent="1">
          <mxGeometry x="30" y="650" width="160" height="23" as="geometry" />
        </mxCell>
        <mxCell id="GdallPRJVWENSj5D0rk3-26" value="" style="shape=tableRow;horizontal=0;startSize=0;swimlaneHead=0;swimlaneBody=0;top=0;left=0;bottom=0;right=0;collapsible=0;dropTarget=0;fillColor=none;points=[[0,0.5],[1,0.5]];portConstraint=eastwest;" vertex="1" parent="GdallPRJVWENSj5D0rk3-25">
          <mxGeometry width="160" height="23" as="geometry" />
        </mxCell>
        <mxCell id="GdallPRJVWENSj5D0rk3-27" value="广东" style="shape=partialRectangle;html=1;whiteSpace=wrap;connectable=0;fillColor=none;top=0;left=0;bottom=0;right=0;overflow=hidden;" vertex="1" parent="GdallPRJVWENSj5D0rk3-26">
          <mxGeometry width="54" height="23" as="geometry">
            <mxRectangle width="54" height="23" as="alternateBounds" />
          </mxGeometry>
        </mxCell>
        <mxCell id="GdallPRJVWENSj5D0rk3-28" value="深圳" style="shape=partialRectangle;html=1;whiteSpace=wrap;connectable=0;fillColor=none;top=0;left=0;bottom=0;right=0;overflow=hidden;" vertex="1" parent="GdallPRJVWENSj5D0rk3-26">
          <mxGeometry x="54" width="52" height="23" as="geometry">
            <mxRectangle width="52" height="23" as="alternateBounds" />
          </mxGeometry>
        </mxCell>
        <mxCell id="GdallPRJVWENSj5D0rk3-29" value="南山" style="shape=partialRectangle;html=1;whiteSpace=wrap;connectable=0;fillColor=none;top=0;left=0;bottom=0;right=0;overflow=hidden;" vertex="1" parent="GdallPRJVWENSj5D0rk3-26">
          <mxGeometry x="106" width="54" height="23" as="geometry">
            <mxRectangle width="54" height="23" as="alternateBounds" />
          </mxGeometry>
        </mxCell>
        <mxCell id="GdallPRJVWENSj5D0rk3-38" value="" style="shape=table;html=1;whiteSpace=wrap;startSize=0;container=1;collapsible=0;childLayout=tableLayout;" vertex="1" parent="1">
          <mxGeometry x="190" y="650" width="160" height="23" as="geometry" />
        </mxCell>
        <mxCell id="GdallPRJVWENSj5D0rk3-39" value="" style="shape=tableRow;horizontal=0;startSize=0;swimlaneHead=0;swimlaneBody=0;top=0;left=0;bottom=0;right=0;collapsible=0;dropTarget=0;fillColor=none;points=[[0,0.5],[1,0.5]];portConstraint=eastwest;" vertex="1" parent="GdallPRJVWENSj5D0rk3-38">
          <mxGeometry width="160" height="23" as="geometry" />
        </mxCell>
        <mxCell id="GdallPRJVWENSj5D0rk3-40" value="..." style="shape=partialRectangle;html=1;whiteSpace=wrap;connectable=0;fillColor=none;top=0;left=0;bottom=0;right=0;overflow=hidden;" vertex="1" parent="GdallPRJVWENSj5D0rk3-39">
          <mxGeometry width="54" height="23" as="geometry">
            <mxRectangle width="54" height="23" as="alternateBounds" />
          </mxGeometry>
        </mxCell>
        <mxCell id="GdallPRJVWENSj5D0rk3-41" value="..." style="shape=partialRectangle;html=1;whiteSpace=wrap;connectable=0;fillColor=none;top=0;left=0;bottom=0;right=0;overflow=hidden;" vertex="1" parent="GdallPRJVWENSj5D0rk3-39">
          <mxGeometry x="54" width="52" height="23" as="geometry">
            <mxRectangle width="52" height="23" as="alternateBounds" />
          </mxGeometry>
        </mxCell>
        <mxCell id="GdallPRJVWENSj5D0rk3-42" value="" style="shape=partialRectangle;html=1;whiteSpace=wrap;connectable=0;fillColor=none;top=0;left=0;bottom=0;right=0;overflow=hidden;" vertex="1" parent="GdallPRJVWENSj5D0rk3-39">
          <mxGeometry x="106" width="54" height="23" as="geometry">
            <mxRectangle width="54" height="23" as="alternateBounds" />
          </mxGeometry>
        </mxCell>
        <mxCell id="GdallPRJVWENSj5D0rk3-43" value="" style="shape=table;html=1;whiteSpace=wrap;startSize=0;container=1;collapsible=0;childLayout=tableLayout;" vertex="1" parent="1">
          <mxGeometry x="350" y="650" width="160" height="23" as="geometry" />
        </mxCell>
        <mxCell id="GdallPRJVWENSj5D0rk3-44" value="" style="shape=tableRow;horizontal=0;startSize=0;swimlaneHead=0;swimlaneBody=0;top=0;left=0;bottom=0;right=0;collapsible=0;dropTarget=0;fillColor=none;points=[[0,0.5],[1,0.5]];portConstraint=eastwest;" vertex="1" parent="GdallPRJVWENSj5D0rk3-43">
          <mxGeometry width="160" height="23" as="geometry" />
        </mxCell>
        <mxCell id="GdallPRJVWENSj5D0rk3-45" value="" style="shape=partialRectangle;html=1;whiteSpace=wrap;connectable=0;fillColor=none;top=0;left=0;bottom=0;right=0;overflow=hidden;" vertex="1" parent="GdallPRJVWENSj5D0rk3-44">
          <mxGeometry width="54" height="23" as="geometry">
            <mxRectangle width="54" height="23" as="alternateBounds" />
          </mxGeometry>
        </mxCell>
        <mxCell id="GdallPRJVWENSj5D0rk3-46" value="经度" style="shape=partialRectangle;html=1;whiteSpace=wrap;connectable=0;fillColor=none;top=0;left=0;bottom=0;right=0;overflow=hidden;" vertex="1" parent="GdallPRJVWENSj5D0rk3-44">
          <mxGeometry x="54" width="52" height="23" as="geometry">
            <mxRectangle width="52" height="23" as="alternateBounds" />
          </mxGeometry>
        </mxCell>
        <mxCell id="GdallPRJVWENSj5D0rk3-47" value="维度" style="shape=partialRectangle;html=1;whiteSpace=wrap;connectable=0;fillColor=none;top=0;left=0;bottom=0;right=0;overflow=hidden;" vertex="1" parent="GdallPRJVWENSj5D0rk3-44">
          <mxGeometry x="106" width="54" height="23" as="geometry">
            <mxRectangle width="54" height="23" as="alternateBounds" />
          </mxGeometry>
        </mxCell>
        <mxCell id="GdallPRJVWENSj5D0rk3-48" value="2" style="text;html=1;resizable=0;autosize=1;align=center;verticalAlign=middle;points=[];fillColor=none;strokeColor=none;rounded=0;" vertex="1" parent="1">
          <mxGeometry x="80" y="330" width="30" height="30" as="geometry" />
        </mxCell>
        <mxCell id="GdallPRJVWENSj5D0rk3-49" value="3" style="text;html=1;resizable=0;autosize=1;align=center;verticalAlign=middle;points=[];fillColor=none;strokeColor=none;rounded=0;" vertex="1" parent="1">
          <mxGeometry x="130" y="330" width="30" height="30" as="geometry" />
        </mxCell>
        <mxCell id="GdallPRJVWENSj5D0rk3-50" value="4" style="text;html=1;resizable=0;autosize=1;align=center;verticalAlign=middle;points=[];fillColor=none;strokeColor=none;rounded=0;" vertex="1" parent="1">
          <mxGeometry x="170" y="330" width="30" height="30" as="geometry" />
        </mxCell>
        <mxCell id="GdallPRJVWENSj5D0rk3-51" value="非叶子节点" style="text;html=1;resizable=0;autosize=1;align=center;verticalAlign=middle;points=[];fillColor=none;strokeColor=none;rounded=0;" vertex="1" parent="1">
          <mxGeometry x="250" y="200" width="80" height="30" as="geometry" />
        </mxCell>
        <mxCell id="GdallPRJVWENSj5D0rk3-52" value="叶子节点" style="text;html=1;resizable=0;autosize=1;align=center;verticalAlign=middle;points=[];fillColor=none;strokeColor=none;rounded=0;" vertex="1" parent="1">
          <mxGeometry x="395" y="340" width="70" height="30" as="geometry" />
        </mxCell>
        <mxCell id="GdallPRJVWENSj5D0rk3-53" value="主键索引" style="text;html=1;resizable=0;autosize=1;align=center;verticalAlign=middle;points=[];fillColor=none;strokeColor=none;rounded=0;" vertex="1" parent="1">
          <mxGeometry x="155" y="90" width="70" height="30" as="geometry" />
        </mxCell>
        <mxCell id="GdallPRJVWENSj5D0rk3-54" value="" style="endArrow=classic;html=1;rounded=0;" edge="1" parent="1">
          <mxGeometry width="50" height="50" relative="1" as="geometry">
            <mxPoint x="440" y="380" as="sourcePoint" />
            <mxPoint x="580" y="640" as="targetPoint" />
          </mxGeometry>
        </mxCell>
        <mxCell id="GdallPRJVWENSj5D0rk3-55" value="存储的是整行数据" style="text;html=1;resizable=0;autosize=1;align=center;verticalAlign=middle;points=[];fillColor=none;strokeColor=none;rounded=0;" vertex="1" parent="1">
          <mxGeometry x="550" y="646.5" width="120" height="30" as="geometry" />
        </mxCell>
      </root>
    </mxGraphModel>
  </diagram>
</mxfile>
